PathFileType	4	(X/Y/Z)	E:\3-PhD\Data\MocapData\ElaboratedData\015\pre\dynamicElaborations\RunL1\RunL1.trc
DataRate	CameraRate	NumFrames	NumMarkers	Units	OrigDataRate	OrigDataStartFrame	OrigNumFrames
200	200	4	61	mm	200	2.560000e+02	124
Frame#	Time	FHD			LBHD			RBHD			C7			T10			CLAV			LSHO			LUUPA			LMUPA			LDUPA			LLEP			LMEP			LRAD			LUL			LRFIN			RSHO			RUPA1			RMUPA			RDUPA			RLEP			RMEP			RRAD			RUL			RUFIN			LASI			RASI			USACR			LSACR			RSACR			LTHI1			LTHI2			LTHI3			LTHI4			LLFC			LMFC			LTIB1			LTIB2			LTIB3			LTIB4			LLMAL			LMMAL			LHEE			LMT1			LMT5			LMT2			RTHI			RTHI2			RTHI3			RTHI4			RLFC			RMFC			RTIB1			RTIB2			RTIB3			RTIB4			RLMAL			RMMAL			RHEE			RMT1			RMT2			RMT5		
		X1	Y1	Z1	X2	Y2	Z2	X3	Y3	Z3	X4	Y4	Z4	X5	Y5	Z5	X6	Y6	Z6	X7	Y7	Z7	X8	Y8	Z8	X9	Y9	Z9	X10	Y10	Z10	X11	Y11	Z11	X12	Y12	Z12	X13	Y13	Z13	X14	Y14	Z14	X15	Y15	Z15	X16	Y16	Z16	X17	Y17	Z17	X18	Y18	Z18	X19	Y19	Z19	X20	Y20	Z20	X21	Y21	Z21	X22	Y22	Z22	X23	Y23	Z23	X24	Y24	Z24	X25	Y25	Z25	X26	Y26	Z26	X27	Y27	Z27	X28	Y28	Z28	X29	Y29	Z29	X30	Y30	Z30	X31	Y31	Z31	X32	Y32	Z32	X33	Y33	Z33	X34	Y34	Z34	X35	Y35	Z35	X36	Y36	Z36	X37	Y37	Z37	X38	Y38	Z38	X39	Y39	Z39	X40	Y40	Z40	X41	Y41	Z41	X42	Y42	Z42	X43	Y43	Z43	X44	Y44	Z44	X45	Y45	Z45	X46	Y46	Z46	X47	Y47	Z47	X48	Y48	Z48	X49	Y49	Z49	X50	Y50	Z50	X51	Y51	Z51	X52	Y52	Z52	X53	Y53	Z53	X54	Y54	Z54	X55	Y55	Z55	X56	Y56	Z56	X57	Y57	Z57	X58	Y58	Z58	X59	Y59	Z59	X60	Y60	Z60	X61	Y61	Z61	
256	1.275000	-2208.259903	1501.244445	187.995637	-2326.607331	1580.896282	177.658715	-2329.247725	1587.613924	305.240941	-2496.332177	1488.788311	286.000371	-2627.083855	1171.860051	289.064365	-2396.529364	1365.317814	232.268228	-2490.657864	1496.517323	101.203723	-2639.392417	1402.490628	12.317126	-2635.504944	1355.032862	0.331261	-2692.394245	1365.853784	-13.156244	-2767.387484	1327.965430	-23.653830	-2770.542397	1288.082163	67.430714	-2697.820102	1067.050764	-74.447363	-2642.423672	1089.547924	-31.235986	-2589.519082	1027.910462	-73.126045	-2398.306240	1448.195398	424.573699	-2401.862485	1277.469759	507.160066	-2375.429192	1245.740449	483.606099	-2400.260564	1208.286551	522.939782	-2396.623234	1097.179383	517.504422	-2475.155240	1089.469387	476.431032	-2277.593782	1189.625994	296.204194	-2236.975533	1123.565424	297.311756	-2207.712095	1221.974935	276.373737	-2522.544694	1000.977864	142.172267	-2509.364589	956.334654	387.189773	-2670.361998	1077.848907	282.174836	-2685.459613	1049.437083	253.480116	-2678.102472	1045.193030	309.528618	-2451.868583	768.781077	69.817758	-2370.195767	743.418933	71.209041	-2339.507893	781.061926	75.656229	-2346.004480	693.160924	97.887478	-2297.333344	636.428483	117.686761	-2300.483717	650.707456	233.636288	-2278.558189	480.414811	164.185602	-2335.270610	453.370876	103.363129	-2305.847162	440.554249	132.188914	-2338.230062	365.983545	163.940353	-2437.887201	259.938246	149.671866	-2426.829600	263.097777	233.465737	-2524.621822	228.322113	195.621431	-2322.453916	171.122097	230.341041	-2357.141341	150.920288	131.982772	-2316.712684	170.874587	181.724542	-2610.055618	778.163001	443.194665	-2609.071137	716.373661	428.165513	-2583.205619	704.142170	409.432713	-2676.211395	662.201366	429.173016	-2838.677354	531.734645	402.090129	-2835.179793	519.491671	272.406015	-2930.782633	324.620307	364.177560	-3032.444781	310.545022	403.556932	-2999.233688	278.798387	389.453636	-3023.315707	235.527877	358.511671	-3107.652615	201.050574	385.108714	-3095.333437	214.965926	302.982770	-3193.778592	243.182706	339.455736	-3084.842327	67.382435	286.387341	-3088.450704	66.267774	329.035739	-3130.920781	67.058741	386.732722	
257	1.280000	-2185.294121	1502.453782	183.741528	-2303.611799	1582.169019	173.610034	-2305.611301	1589.525724	301.063792	-2472.671474	1490.535598	284.137323	-2602.431848	1173.689368	290.039769	-2373.259335	1367.243739	229.667965	-2468.024182	1497.938080	99.357487	-2616.486730	1404.159580	11.548233	-2612.921043	1356.722896	-0.478044	-2669.771838	1367.775999	-13.726760	-2744.687434	1330.009291	-23.429246	-2747.235653	1290.844523	67.743307	-2671.691268	1069.501328	-74.592234	-2616.530699	1092.988904	-31.566463	-2562.868543	1031.401339	-73.262240	-2373.189859	1450.984200	421.349688	-2375.563059	1281.918598	505.809808	-2349.747019	1249.618231	482.415388	-2374.082499	1213.122133	523.012388	-2371.458173	1102.081648	519.442062	-2451.255752	1093.304902	480.642583	-2256.982870	1189.345996	293.902095	-2216.134771	1123.437152	295.599986	-2187.935335	1221.417979	271.362962	-2498.286108	1003.080025	142.530802	-2484.360417	957.036206	386.470690	-2645.157959	1080.794066	283.377866	-2660.338329	1052.440636	254.632245	-2652.830644	1048.002018	310.549083	-2427.869151	770.444783	69.905731	-2346.541376	744.236999	72.072606	-2315.462151	781.448668	76.976714	-2323.233782	693.430590	98.518219	-2274.364136	635.281178	117.526839	-2278.491687	648.176023	233.044452	-2248.981891	478.714299	163.944430	-2302.069534	448.429382	101.240120	-2273.148928	437.344800	131.459713	-2302.308086	361.266644	162.582131	-2395.701406	249.572472	147.418811	-2385.496986	253.690659	231.494795	-2480.833421	213.176503	192.822621	-2276.234671	168.033039	229.364345	-2308.697189	145.529432	130.876819	-2270.011842	167.863678	180.832040	-2586.175066	779.473040	442.330035	-2586.054613	717.602389	426.635702	-2560.316631	705.290799	407.889175	-2653.521850	664.260558	427.831347	-2817.388633	535.807096	400.953609	-2815.262305	524.294268	271.306499	-2913.530682	330.441854	363.504000	-3014.874481	317.933683	404.267612	-2982.443730	285.743836	389.488719	-3007.606316	243.097546	358.680800	-3092.345601	209.988391	386.277842	-3080.459677	223.606535	304.038167	-3176.865696	256.820805	341.983758	-3076.910510	73.857776	286.587722	-3079.895467	72.715962	329.503025	-3122.603964	76.204732	387.176340	
258	1.285000	-2162.238520	1503.487342	179.524810	-2280.536434	1583.260321	169.608562	-2281.863697	1591.270615	296.916969	-2448.991139	1492.140348	282.218471	-2577.949879	1175.625151	290.822543	-2349.857069	1369.010934	227.086329	-2445.324863	1499.008692	97.411737	-2593.316736	1405.121331	10.591022	-2590.034177	1357.695183	-1.411150	-2646.843679	1368.934495	-14.477551	-2721.688584	1331.142441	-23.395429	-2723.609149	1292.732935	67.783053	-2644.938079	1071.182016	-74.806651	-2590.026988	1095.738116	-32.008886	-2535.595867	1034.224190	-73.453979	-2348.231841	1453.488620	418.292482	-2349.829034	1286.088903	504.729672	-2324.542649	1253.208355	481.648851	-2348.545968	1217.721990	523.403676	-2346.806955	1106.757431	521.607024	-2427.670973	1097.000802	484.911298	-2236.280056	1187.612264	291.928901	-2195.365476	1121.808312	294.549809	-2168.070003	1219.013329	266.293529	-2474.130760	1004.862741	142.866506	-2459.545071	957.900367	385.860880	-2620.152534	1083.824695	284.444157	-2635.361474	1055.475666	255.670272	-2627.714928	1050.920006	311.479255	-2404.143521	771.464308	70.042571	-2323.191433	744.326162	72.856823	-2291.666402	781.030962	78.294646	-2300.849379	692.885846	98.944764	-2252.071809	633.280683	117.111985	-2257.016114	644.606309	232.324741	-2220.335792	476.418403	163.280291	-2269.842041	443.184122	98.907620	-2241.491468	433.749200	130.456972	-2267.356132	356.394904	160.961601	-2354.303364	239.502894	145.078888	-2344.831378	244.573977	229.411608	-2437.466562	198.410171	190.212159	-2231.031841	165.709262	228.051628	-2261.324849	140.924394	129.545572	-2224.456005	165.602391	179.606065	-2562.067721	780.671215	441.411721	-2562.535998	718.714941	425.056551	-2536.878519	706.443567	406.285968	-2630.065259	665.933776	426.434811	-2794.625498	538.778104	399.784270	-2793.865289	528.134807	270.204228	-2895.761202	335.928763	362.384507	-2996.690343	325.396231	404.730166	-2965.251023	292.645559	389.200128	-2991.754899	250.877216	358.460090	-3076.875916	219.742824	387.181155	-3065.529290	233.048182	304.816772	-3159.864247	270.687408	344.272831	-3068.111397	81.718391	286.824865	-3070.381833	80.425648	329.937040	-3113.109618	86.503118	387.700334	
259	1.290000	-2139.077113	1504.342684	175.382601	-2257.361689	1584.162009	165.671136	-2258.005912	1592.841379	292.816116	-2425.275910	1493.602962	280.239399	-2553.657022	1177.660278	291.407753	-2326.335999	1370.615185	224.535513	-2422.564946	1499.726701	95.373411	-2569.904039	1405.346789	9.428071	-2566.853860	1357.916624	-2.474053	-2623.626533	1369.277114	-15.411411	-2698.408746	1331.331816	-23.577143	-2699.685330	1293.678053	67.541948	-2617.556500	1072.096358	-75.081280	-2562.909366	1097.799308	-32.571421	-2507.692294	1036.399497	-73.700937	-2323.429344	1455.718738	415.418962	-2324.664175	1289.962027	503.931975	-2299.809646	1256.513408	481.297109	-2323.641487	1222.052313	524.076373	-2322.704950	1111.172323	523.948096	-2404.451321	1100.603738	489.145705	-2215.459322	1184.443378	290.323153	-2174.691505	1118.676134	294.188525	-2148.064019	1214.699228	261.298742	-2450.091996	1006.327142	143.169306	-2434.893609	958.916245	385.339426	-2595.367910	1086.888722	285.358808	-2610.555625	1058.487743	256.582953	-2602.768159	1053.894066	312.308558	-2380.728213	771.833408	70.228434	-2300.189195	743.652851	73.553536	-2268.179534	779.790850	79.548181	-2278.886937	691.524670	99.186239	-2230.482270	630.431985	116.505266	-2236.012890	640.046228	231.535307	-2192.629017	473.526609	162.185386	-2238.799387	437.654264	96.468372	-2210.978094	429.771958	129.175228	-2233.457494	351.347583	159.095776	-2313.877116	229.759974	142.678090	-2304.992757	235.805957	227.238536	-2394.718230	184.107905	187.835189	-2187.038758	164.157671	226.350518	-2215.270130	137.072081	127.952375	-2180.259013	164.070449	177.996588	-2537.702958	781.724965	440.419447	-2538.478255	719.691678	423.426226	-2512.859762	707.568213	404.615545	-2605.830863	667.180729	424.956211	-2770.485266	540.667174	398.579571	-2771.010863	530.972874	269.108057	-2877.505715	341.113768	360.942411	-2977.941368	332.965633	404.961562	-2947.683432	299.545919	388.668155	-2975.730410	258.874587	357.939577	-3061.220798	230.267012	387.856581	-3050.442030	243.240932	305.357947	-3142.747806	284.770254	346.254446	-3058.465347	90.896499	287.098459	-3059.986954	89.342705	330.329973	-3102.496786	97.848610	388.300342	
